HIERARCHY
ROOT Hips
{
	OFFSET 51.768600 -37.608715 84.732994
	CHANNELS 6 Xposition Yposition Zposition Xrotation Yrotation Zrotation
	JOINT spine
	{
		OFFSET 0.000000 -0.342407 5.954376
		CHANNELS 3 Xrotation Yrotation Zrotation
		JOINT spine1
		{
			OFFSET 0.000000 0.000000 8.856018
			CHANNELS 3 Xrotation Yrotation Zrotation
			JOINT spine2
			{
				OFFSET 0.000000 -0.000004 8.485672
				CHANNELS 3 Xrotation Yrotation Zrotation
				JOINT Neck
				{
					OFFSET 0.000000 -1.038704 21.786308
					CHANNELS 3 Xrotation Yrotation Zrotation
					JOINT Head
					{
						OFFSET 0.000000 0.000000 6.582199
						CHANNELS 3 Xrotation Yrotation Zrotation
						End Site
						{
							OFFSET 0.000000 5.254356 15.932602
						}
					}
				}
				JOINT RightShoulder
				{
					OFFSET -3.573071 0.497524 9.163864
					CHANNELS 3 Xrotation Yrotation Zrotation
					JOINT RightArm
					{
						OFFSET 0.000000 -0.000004 12.019203
						CHANNELS 3 Xrotation Yrotation Zrotation
						JOINT RightArmRoll
						{
							OFFSET 0.000000 0.000000 6.067551
							CHANNELS 3 Xrotation Yrotation Zrotation
							JOINT RightForeArm
							{
								OFFSET 0.000000 -0.000004 17.672592
								CHANNELS 3 Xrotation Yrotation Zrotation
								JOINT RightForeArmRoll
								{
									OFFSET 0.000000 0.000000 6.808716
									CHANNELS 3 Xrotation Yrotation Zrotation
									JOINT RightHand
									{
										OFFSET 0.000000 0.000000 13.663605
										CHANNELS 3 Xrotation Yrotation Zrotation
										End Site
										{
											OFFSET 0.000000 0.000000 0.100006
										}
									}
								}
							}
						}
					}
				}
				JOINT LeftShoulder
				{
					OFFSET 3.573071 0.497524 9.163864
					CHANNELS 3 Xrotation Yrotation Zrotation
					JOINT LeftArm
					{
						OFFSET 0.000000 -0.000004 12.019203
						CHANNELS 3 Xrotation Yrotation Zrotation
						JOINT LeftArmRoll
						{
							OFFSET 0.000000 0.000000 6.067551
							CHANNELS 3 Xrotation Yrotation Zrotation
							JOINT LeftForeArm
							{
								OFFSET 0.000000 -0.000004 17.672592
								CHANNELS 3 Xrotation Yrotation Zrotation
								JOINT LeftForeArmRoll
								{
									OFFSET 0.000000 0.000000 6.808716
									CHANNELS 3 Xrotation Yrotation Zrotation
									JOINT LeftHand
									{
										OFFSET 0.000000 0.000000 13.663605
										CHANNELS 3 Xrotation Yrotation Zrotation
										End Site
										{
											OFFSET 0.000000 0.000000 0.100006
										}
									}
								}
							}
						}
					}
				}
			}
		}
	}
	JOINT RightUpLeg
	{
		OFFSET -5.277740 0.811859 -0.967796
		CHANNELS 3 Xrotation Yrotation Zrotation
		JOINT RightUpLegRoll
		{
			OFFSET 0.000000 0.000000 16.021400
			CHANNELS 3 Xrotation Yrotation Zrotation
			JOINT RightLeg
			{
				OFFSET 0.000000 0.000004 -19.840103
				CHANNELS 3 Xrotation Yrotation Zrotation
				JOINT RightLegRoll
				{
					OFFSET 0.000000 -0.000004 19.904999
					CHANNELS 3 Xrotation Yrotation Zrotation
					JOINT RightFoot
					{
						OFFSET 0.000000 -0.000004 16.567497
						CHANNELS 3 Xrotation Yrotation Zrotation
						JOINT RightToeBase
						{
							OFFSET 0.000000 -0.000004 13.849609
							CHANNELS 3 Xrotation Yrotation Zrotation
							End Site
							{
								OFFSET 0.005871 0.773117 6.707275
							}
						}
					}
				}
			}
		}
	}
	JOINT LeftUpLeg
	{
		OFFSET 5.277740 0.811859 -0.967796
		CHANNELS 3 Xrotation Yrotation Zrotation
		JOINT LeftUpLegRoll
		{
			OFFSET 0.000000 0.000000 16.021500
			CHANNELS 3 Xrotation Yrotation Zrotation
			JOINT LeftLeg
			{
				OFFSET 0.000000 -0.000004 19.840004
				CHANNELS 3 Xrotation Yrotation Zrotation
				JOINT LeftLegRoll
				{
					OFFSET 0.000000 -0.000004 20.089012
					CHANNELS 3 Xrotation Yrotation Zrotation
					JOINT LeftFoot
					{
						OFFSET 0.000000 -0.000004 16.383499
						CHANNELS 3 Xrotation Yrotation Zrotation
						JOINT LeftToeBase
						{
							OFFSET 0.000000 0.000000 13.849594
							CHANNELS 3 Xrotation Yrotation Zrotation
							End Site
							{
								OFFSET -0.026310 0.773113 6.707275
							}
						}
					}
				}
			}
		}
	}
}
MOTION
Frames: 4
Frame Time: 0.041667
49.482307 -7.808069 71.619385 32.008855 6.269600 6.265546 1.423353 -1.206009 0.182257 6.857508 -2.403949 0.401949 8.503183 -2.398929 0.430352 9.348991 0.689808 -5.487763 5.898300 -5.454096 -4.890549 182.842156 -108.859063 181.758424 111.274990 -54.961269 105.715353 -0.000009 0.000003 0.000001 -0.036354 3.635839 -1.990654 0.000004 0.000022 -3.011611 -5.000164 -7.999928 -0.000023 -7.589952 60.908485 9.046533 -54.603377 140.308287 72.947158 -0.000001 -0.000000 0.000001 -0.028492 -3.641809 1.990682 -0.000001 -0.000007 3.011607 -5.000174 7.999927 -0.000000 -81.649290 -182.831269 -4.141537 -179.999991 0.000004 -0.472002 129.835353 0.659204 -1.983851 -0.000003 0.000005 0.895368 70.802028 6.877881 2.040144 25.456959 -7.355615 0.000011 -82.096162 184.957425 6.355694 -0.000039 -0.000004 -0.489827 -48.799694 -3.276752 0.308628 -0.000001 -0.000003 -0.658131 67.039843 -7.059150 -1.844986 25.456868 7.355619 0.000006 
49.481506 -7.908396 71.711693 31.930523 6.255037 6.255861 1.422065 -1.201609 0.181693 6.855123 -2.395174 0.400571 8.500788 -2.390162 0.428816 9.182909 0.635386 -5.491893 6.088458 -5.437748 -4.880392 182.802814 -108.738053 181.699534 111.184326 -54.934286 105.641279 -0.000007 0.000004 -0.000001 -0.036445 3.635829 -1.990651 0.000006 0.000022 -3.011611 -5.000166 -7.999928 -0.000021 -7.578330 61.047780 9.043212 -54.707681 140.257962 72.979608 0.000001 0.000000 -0.000001 -0.028498 -3.641860 1.990682 -0.000002 -0.000007 3.011612 -5.000173 7.999927 0.000005 -81.395767 -182.861294 -4.152981 -179.999991 0.000006 -0.472999 129.985412 0.677980 -1.969665 -0.000003 0.000005 0.893073 70.802479 6.877323 2.041520 25.456964 -7.355616 0.000011 -81.847011 184.925896 6.365977 -0.000040 -0.000004 -0.490940 -48.668936 -3.271035 0.309860 -0.000001 -0.000003 -0.655178 67.052923 -7.057962 -1.847005 25.456868 7.355619 0.000006 
49.495800 -7.990849 71.784401 31.851091 6.240577 6.244799 1.420493 -1.197102 0.181105 6.852110 -2.386194 0.399174 8.497770 -2.381189 0.427264 9.026147 0.579735 -5.495371 6.269671 -5.419414 -4.869865 182.762325 -108.621844 181.640084 111.103129 -54.904687 105.573107 -0.000007 0.000004 0.000001 -0.036532 3.635788 -1.990655 0.000004 0.000022 -3.011609 -5.000162 -7.999929 -0.000019 -7.567450 61.181221 9.040297 -54.805882 140.207651 73.008664 -0.000000 -0.000000 -0.000002 -0.028507 -3.641900 1.990681 -0.000002 -0.000007 3.011609 -5.000174 7.999927 0.000004 -81.141643 -182.892959 -4.164230 -179.999991 0.000005 -0.473997 130.135567 0.697509 -1.954802 -0.000003 0.000005 0.890917 70.803367 6.876801 2.042976 25.456959 -7.355614 0.000011 -81.597347 184.893166 6.375768 -0.000038 -0.000004 -0.492080 -48.537889 -3.265465 0.311016 -0.000001 -0.000003 -0.652181 67.065593 -7.056806 -1.848856 25.456865 7.355619 0.000005 
49.488800 -8.082451 71.875175 31.770871 6.226195 6.231935 1.418571 -1.192474 0.180489 6.848354 -2.376969 0.397752 8.494010 -2.371994 0.425698 8.881047 0.522687 -5.498053 6.439715 -5.398861 -4.858957 182.721467 -108.511154 181.580975 111.030346 -54.873228 105.509231 -0.000006 0.000004 0.000000 -0.036616 3.635740 -1.990650 0.000004 0.000022 -3.011609 -5.000165 -7.999929 -0.000021 -7.557178 61.308393 9.037556 -54.896843 140.157585 73.032945 0.000001 -0.000001 -0.000001 -0.028516 -3.641939 1.990679 -0.000003 -0.000007 3.011612 -5.000175 7.999927 0.000003 -80.886911 -182.926591 -4.175684 -179.999991 0.000006 -0.476003 130.285790 0.718422 -1.938525 -0.000003 0.000005 0.888916 70.804890 6.876281 2.044193 25.456959 -7.355616 0.000011 -81.347143 184.858961 6.386221 -0.000038 -0.000004 -0.493249 -48.406462 -3.260025 0.312103 -0.000001 -0.000003 -0.649132 67.077553 -7.055724 -1.850669 25.456865 7.355618 0.000006 
